<?xml version="1.0" standalone="no"?><!DOCTYPE svg PUBLIC "-//W3C//DTD SVG 1.1//EN" "http://www.w3.org/Graphics/SVG/1.1/DTD/svg11.dtd"><svg t="1508399672944" class="icon" style="" viewBox="0 0 1024 1024" version="1.1" xmlns="http://www.w3.org/2000/svg" p-id="3054" xmlns:xlink="http://www.w3.org/1999/xlink" width="200" height="200"><defs><style type="text/css"></style></defs><path d="M950.128 489.373 826.01 365.255c-12.496-12.498-32.758-12.498-45.255 0-12.497 12.497-12.497 32.758 0 45.255l69.49 69.49L639.5 480c-17.672 0-31.999 14.327-32 32 0.001 17.673 14.328 32 32 32l210.746 0-69.49 69.49c-12.497 12.497-12.497 32.759 0 45.254 6.248 6.249 14.437 9.372 22.626 9.374 8.189-0.001 16.38-3.124 22.628-9.374l124.117-124.117C962.625 522.131 962.624 501.87 950.128 489.373z" p-id="3055" fill="#bfbfbf"></path><path d="M173.755 544 384.5 544c17.672 0 32-14.327 32-32 0-17.673-14.328-32-32-31.999L173.754 480.001l69.491-69.492c12.496-12.496 12.496-32.758-0.001-45.254-6.247-6.248-14.436-9.371-22.625-9.373-8.189 0-16.38 3.125-22.628 9.373L73.873 489.374c-12.498 12.496-12.497 32.757-0.001 45.253L197.99 658.744c12.496 12.498 32.757 12.498 45.254 0 12.497-12.496 12.497-32.758 0-45.254L173.755 544z" p-id="3056" fill="#bfbfbf"></path><path d="M613.989 781.255l-69.49 69.49L544.5 640c0-17.672-14.327-31.999-32-32-17.673 0.001-32 14.328-32 32l0 210.746-69.491-69.49c-12.497-12.497-32.758-12.497-45.254 0-6.249 6.248-9.373 14.437-9.374 22.626 0 8.19 3.125 16.381 9.373 22.628l124.118 124.117c12.496 12.498 32.757 12.497 45.254 0.001L659.245 826.51c12.497-12.495 12.497-32.757-0.001-45.255C646.748 768.759 626.486 768.758 613.989 781.255z" p-id="3057" fill="#bfbfbf"></path><path d="M411.01 242.745l69.49-69.49 0 210.745c0 17.672 14.327 31.999 32 32 17.672-0.001 31.999-14.328 31.999-32L544.499 173.254l69.492 69.491c12.495 12.496 32.757 12.496 45.254-0.001 6.247-6.247 9.37-14.436 9.372-22.625 0-8.19-3.125-16.38-9.373-22.628L535.126 73.373c-12.496-12.498-32.757-12.497-45.253 0L365.756 197.491c-12.498 12.495-12.498 32.756 0 45.254C378.252 255.243 398.514 255.242 411.01 242.745z" p-id="3058" fill="#bfbfbf"></path></svg>